<mxfile host="app.diagrams.net" modified="2024-06-06T11:15:43.804Z" agent="Mozilla/5.0 (Windows NT 10.0; Win64; x64) AppleWebKit/537.36 (KHTML, like Gecko) Chrome/121.0.0.0 Safari/537.36" etag="WHALt-y6NFVmHp1LvI2d" version="24.4.15" type="google">
  <diagram name="PÃ¡gina-1" id="TC0MffSwxh9yk-H8RJSG">
    <mxGraphModel grid="1" page="1" gridSize="10" guides="1" tooltips="1" connect="1" arrows="1" fold="1" pageScale="1" pageWidth="827" pageHeight="1169" math="0" shadow="0">
      <root>
        <mxCell id="0" />
        <mxCell id="1" parent="0" />
        <mxCell id="tMgChUuuBtrBLMXEoDLV-1" value="" style="rounded=1;whiteSpace=wrap;html=1;rotation=90;" vertex="1" parent="1">
          <mxGeometry x="90" y="-4060" width="500" height="280" as="geometry" />
        </mxCell>
        <mxCell id="tMgChUuuBtrBLMXEoDLV-2" value="" style="rounded=0;whiteSpace=wrap;html=1;" vertex="1" parent="1">
          <mxGeometry x="280" y="-4151" width="120" height="60" as="geometry" />
        </mxCell>
      </root>
    </mxGraphModel>
  </diagram>
</mxfile>
